<svg id="Layer_1" data-name="Layer 1" xmlns="http://www.w3.org/2000/svg" viewBox="0 0 105 105"><defs><style>.cls-1{font-size:14.85px;font-family:Arial-BoldMT, Arial;font-weight:700;}.cls-1,.cls-4{fill:#990d0d;}.cls-2,.cls-3{fill:#0c3389;}.cls-2{font-family:ArialMT, Arial;font-weight:400;}</style></defs><title>SVG 105</title><text class="cls-1" transform="translate(1.82 71.64)">BEM<tspan class="cls-2" x="33.01" y="0">EXPRESS</tspan></text><path class="cls-3" d="M40.05,37.15a14.61,14.61,0,0,0,0,11.87Z"/><path class="cls-4" d="M52.69,52v-.71a5,5,0,0,0,3-4.69,4.1,4.1,0,0,0-3-4.26v-.19A3.48,3.48,0,0,0,55,38.78a4.3,4.3,0,0,0-2.35-3.89V34.1H64.94a14.62,14.62,0,0,0-23.06,0h5.53a17,17,0,0,1,2.28.1c3,.36,4.63,2.24,4.63,4.58a3.54,3.54,0,0,1-2.62,3.5A4.15,4.15,0,0,1,55,46.63c0,3.35-2.73,5-5.15,5.3a21.52,21.52,0,0,1-2.65.1H41.85A14.62,14.62,0,0,0,65,52Z"/><path class="cls-4" d="M57.37,44.86v3.53h9.07v1.33A14.64,14.64,0,0,0,66.18,36v1.78H57.37v3.48h8.29v3.64Z"/><path class="cls-3" d="M44.73,48.39h2.52c.42,0,.83,0,1.17,0a1.91,1.91,0,0,0-.13-3.8c-.34,0-.75,0-1.17,0H44.73Z"/><path class="cls-3" d="M49.43,39.45A1.5,1.5,0,0,0,48,37.81a8.27,8.27,0,0,0-1.17-.07h-2.1v3.43h2.1A8,8,0,0,0,48,41.09,1.5,1.5,0,0,0,49.43,39.45Z"/></svg>