<svg id="Layer_1" data-name="Layer 1" xmlns="http://www.w3.org/2000/svg" viewBox="0 0 70 70"><defs><style>.cls-1{font-size:9.84px;font-family:Arial-BoldMT, Arial;font-weight:700;}.cls-1,.cls-4{fill:#990d0d;}.cls-2,.cls-3{fill:#0c3389;}.cls-2{font-family:ArialMT, Arial;font-weight:400;}</style></defs><title>SVG 70</title><text class="cls-1" transform="translate(1.25 49.3)">BEM<tspan class="cls-2" x="21.86" y="0">EXPRESS</tspan></text><path class="cls-3" d="M26.56,26.45a9.72,9.72,0,0,0,0,7.86Z"/><path class="cls-4" d="M34.93,36.31v-.47a3.33,3.33,0,0,0,2-3.11,2.72,2.72,0,0,0-2-2.82v-.13a2.3,2.3,0,0,0,1.56-2.25A2.84,2.84,0,0,0,34.93,25v-.53h8.12a9.68,9.68,0,0,0-15.27,0h3.65A10.76,10.76,0,0,1,33,24.5c2,.24,3.06,1.48,3.06,3a2.33,2.33,0,0,1-1.73,2.32,2.75,2.75,0,0,1,2.18,2.88,3.59,3.59,0,0,1-3.41,3.51,13.43,13.43,0,0,1-1.75.07H27.76a9.69,9.69,0,0,0,15.31,0Z"/><path class="cls-4" d="M38,31.56V33.9h6v.88a9.74,9.74,0,0,0-.17-9.12v1.18H38v2.31h5.49v2.41Z"/><path class="cls-3" d="M29.66,33.9h1.67c.28,0,.55,0,.78,0a1.2,1.2,0,0,0,1.11-1.25A1.21,1.21,0,0,0,32,31.37c-.22,0-.5,0-.78,0H29.66Z"/><path class="cls-3" d="M32.78,28a1,1,0,0,0-1-1.09,6,6,0,0,0-.77-.05h-1.4v2.27h1.4a4.35,4.35,0,0,0,.75-.05A1,1,0,0,0,32.78,28Z"/></svg>