<svg id="Layer_1" data-name="Layer 1" xmlns="http://www.w3.org/2000/svg" viewBox="0 0 1920 1080"><defs><style>.cls-1{font-size:191.41px;font-family:Arial-BoldMT, Arial;font-weight:700;}.cls-1,.cls-4{fill:#990d0d;}.cls-2,.cls-3{fill:#0c3389;}.cls-2{font-family:ArialMT, Arial;font-weight:400;}</style></defs><title>SVG HIGH</title><text class="cls-1" transform="translate(295.19 782.17)">BEM<tspan class="cls-2" x="425.35" y="0">EXPRESS</tspan></text><path class="cls-3" d="M787.81,337.66a188.78,188.78,0,0,0,0,153Z"/><path class="cls-4" d="M950.65,529.49v-9.21c21.36-10.19,39-29.87,39-60.48,0-27-12.32-45.93-39-54.83v-2.48c20.38-8.41,30.29-23.88,30.29-43.86,0-21.24-10.65-39.48-30.29-50.05V298.32h157.92a188.4,188.4,0,0,0-297.14,0h71.19c12.39,0,17.75,0,29.48,1.34,38.19,4.69,59.63,28.82,59.63,59,0,21.1-11.05,37.19-33.84,45.23,29.15,8.37,42.55,27.8,42.55,55.94,0,43.22-35.18,64.66-66.33,68.35-11.73,1.34-19.43,1.34-34.17,1.34H811.06a188.38,188.38,0,0,0,297.88,0Z"/><path class="cls-4" d="M1011,437v45.57h116.93v17.1a188.63,188.63,0,0,0-3.35-177.33v22.87H1011v44.89h106.88V437Z"/><path class="cls-3" d="M848.11,482.59h32.5c5.36,0,10.72,0,15.07-.34,10.72-.67,21.78-9.38,21.78-24.46,0-15.41-11.06-23.45-23.45-24.45-4.36-.34-9.72-.34-15.08-.34H848.11Z"/><path class="cls-3" d="M908.75,367.34c0-13.07-7-19.43-18.43-21.11a103.29,103.29,0,0,0-15.07-1H848.11v44.22h27.14a98.66,98.66,0,0,0,14.74-1C901,386.77,908.75,381.07,908.75,367.34Z"/></svg>