<?xml version="1.0" encoding="utf-8"?>
<!-- Generator: Adobe Illustrator 17.0.0, SVG Export Plug-In . SVG Version: 6.00 Build 0)  -->
<!DOCTYPE svg PUBLIC "-//W3C//DTD SVG 1.1//EN" "http://www.w3.org/Graphics/SVG/1.1/DTD/svg11.dtd">
<svg version="1.1" id="Layer_1" xmlns="http://www.w3.org/2000/svg" xmlns:xlink="http://www.w3.org/1999/xlink" x="0px" y="0px"
	 width="105px" height="105px" viewBox="0 0 105 105" enable-background="new 0 0 105 105" xml:space="preserve">
<g>
	<polygon fill="#AA1F23" points="107.667,107.667 -2.667,107.667 -2.667,-2.667 107.667,-2.667 107.667,107.667 	"/>
	<path fill="#FFFFFF" d="M40.809,29.189v13.696c0,6.23,8.371,10.75,10.903,11.974c2.533-1.224,10.903-5.745,10.903-11.974V29.194
		c-1.425-1.096-5.407-3.717-10.903-3.717C46.171,25.477,42.224,28.089,40.809,29.189L40.809,29.189L40.809,29.189z M51.712,58.888
		l-0.715-0.301c-0.567-0.238-13.873-5.954-13.873-15.702V27.538l0.574-0.545c0.224-0.212,5.577-5.202,14.014-5.202
		c8.437,0,13.79,4.99,14.015,5.202l0.573,0.545v15.346c0,9.749-13.307,15.463-13.874,15.702L51.712,58.888L51.712,58.888
		L51.712,58.888z"/>
	<path fill="#FFFFFF" d="M45.327,40.971c0.387-0.077,0.671-0.116,0.852-0.116c0.09,0,0.225,0.007,0.406,0.019l0.175,0.194
		c0.697,1.227,1.155,1.969,1.375,2.227c0.452,0.53,0.897,0.955,1.336,1.278c0.297,0.207,0.762,0.42,1.394,0.639
		c0.426,0.155,0.878,0.232,1.355,0.232c0.813,0,1.51-0.261,2.091-0.784c0.581-0.523,0.871-1.087,0.871-1.694
		c0-0.413-0.11-0.765-0.329-1.055c-0.22-0.29-0.659-0.578-1.317-0.861c-0.323-0.142-1.133-0.374-2.43-0.697
		c-1.297-0.322-2.081-0.535-2.352-0.639c-0.607-0.233-1.146-0.555-1.617-0.968c-0.472-0.413-0.83-0.878-1.075-1.394
		c-0.336-0.736-0.503-1.368-0.503-1.897c0-0.981,0.142-1.785,0.426-2.411c0.284-0.626,0.684-1.178,1.2-1.655
		c0.375-0.361,0.939-0.691,1.695-0.988c0.755-0.297,1.565-0.445,2.43-0.445c1.226,0,2.304,0.084,3.234,0.252
		c0.929,0.168,1.716,0.42,2.362,0.755c0.078,0.297,0.187,0.981,0.329,2.052c0.142,1.072,0.213,1.704,0.213,1.897
		c0,0.091-0.019,0.187-0.058,0.29c-0.336,0.103-0.613,0.155-0.833,0.155c-0.129,0-0.316-0.013-0.562-0.039
		c-0.116-0.18-0.271-0.452-0.464-0.813c-0.62-1.149-1.255-1.959-1.907-2.43c-0.652-0.471-1.404-0.707-2.256-0.707
		c-0.89,0-1.639,0.258-2.246,0.774c-0.439,0.374-0.658,0.884-0.658,1.529c0,0.426,0.229,0.859,0.687,1.297
		c0.445,0.452,1.231,0.794,2.357,1.026c1.695,0.374,2.943,0.749,3.745,1.123c1.164,0.542,1.982,1.181,2.455,1.917
		c0.472,0.736,0.709,1.588,0.709,2.556c0,1.497-0.564,2.746-1.694,3.747c-1.13,1-2.779,1.501-4.947,1.501
		c-0.285,0-1.026-0.065-2.227-0.194c-0.542-0.065-1.181-0.194-1.917-0.387c-0.181-0.052-0.652-0.239-1.413-0.561
		c-0.142-0.078-0.242-0.171-0.3-0.281c-0.058-0.11-0.146-0.649-0.261-1.617C45.449,42.223,45.339,41.281,45.327,40.971
		L45.327,40.971z"/>
	<path fill="#FFFFFF" d="M21.076,76.098v1.213c0,1.032,1.328,1.673,2.864,1.673c1.648,0,2.818-0.711,2.818-2.017
		c0-1.627-1.856-2.175-3.734-2.909c-2.177-0.849-4.308-1.787-4.308-4.72c0-3.278,2.635-4.537,5.454-4.537
		c2.565,0,5.154,0.963,5.154,2.864v2.13h-2.726v-1.099c0-0.825-1.215-1.261-2.428-1.261c-1.328,0-2.429,0.55-2.429,1.787
		c0,1.513,1.536,1.995,3.206,2.659c2.454,0.847,4.859,1.857,4.859,4.881c0,3.324-2.795,4.857-5.865,4.857
		c-2.703,0-5.59-1.214-5.59-3.666v-1.855H21.076L21.076,76.098z"/>
	<path fill="#FFFFFF" d="M31.232,79.168h1.696V67.253h-1.81v-2.177h4.72v9.006h1.536l1.901-2.246h-1.353V69.66h5.614v2.176h-1.511
		l-2.545,3.001v0.047c0.024,0,0.437,0.183,0.894,0.985l1.651,2.886c0.205,0.343,0.412,0.413,0.961,0.413h0.666v2.177h-2.177
		c-0.985,0-1.375-0.161-1.834-1.008l-2.108-3.69c-0.252-0.435-0.573-0.435-1.008-0.435h-0.687v2.956h1.259v2.177h-5.866V79.168
		L31.232,79.168z"/>
	<path fill="#FFFFFF" d="M51.382,79.145c1.901,0,3.459-1.466,3.459-3.644c0-2.154-1.558-3.642-3.459-3.642
		c-1.903,0-3.483,1.489-3.483,3.642C47.899,77.679,49.479,79.145,51.382,79.145L51.382,79.145z M51.358,69.384
		c3.575,0,6.439,2.543,6.439,6.118c0,3.597-2.864,6.117-6.415,6.117c-3.575,0-6.439-2.521-6.439-6.117
		C44.944,71.927,47.808,69.384,51.358,69.384L51.358,69.384z"/>
	<path fill="#FFFFFF" d="M65.482,79.145c1.902,0,3.459-1.466,3.459-3.644c0-2.154-1.558-3.642-3.459-3.642
		c-1.903,0-3.483,1.489-3.483,3.642C61.999,77.679,63.579,79.145,65.482,79.145L65.482,79.145z M65.458,69.384
		c3.575,0,6.439,2.543,6.439,6.118c0,3.597-2.864,6.117-6.415,6.117c-3.575,0-6.438-2.521-6.438-6.117
		C59.043,71.927,61.907,69.384,65.458,69.384L65.458,69.384z"/>
	<path fill="#FFFFFF" d="M74.082,67.253h-1.81v-2.177h4.698V77.45c0,1.076,0.206,1.605,1.191,1.605c0.161,0,0.298-0.022,0.39-0.022
		h0.16v2.336l-0.321,0.046c-0.183,0.022-0.435,0.022-0.733,0.022c-1.857,0-3.575-0.618-3.575-3.804V67.253L74.082,67.253z"/>
	<polygon fill="#FFFFFF" points="80.158,79.168 81.854,79.168 81.854,71.836 80.044,71.836 80.044,69.66 84.763,69.66 
		84.763,79.168 86.436,79.168 86.436,81.345 80.158,81.345 80.158,79.168 	"/>
	<path fill="#FFFFFF" d="M84.967,66.146c0-0.954-0.773-1.727-1.727-1.727c-0.954,0-1.727,0.773-1.727,1.727
		c0,0.953,0.773,1.726,1.727,1.726C84.194,67.872,84.967,67.099,84.967,66.146L84.967,66.146z"/>
</g>
</svg>
