<svg width="66" height="55" xmlns="http://www.w3.org/2000/svg">
 <style type="text/css">.st0{fill:#FFFFFF;}</style>

 <g>
  <title>background</title>
  <rect fill="none" id="canvas_background" height="57" width="68" y="-1" x="-1"/>
 </g>
 <g>
  <title>Layer 1</title>
  <g id="svg_1">
   <g id="svg_2">
    <g id="svg_3">
     <g id="svg_4">
      <path id="svg_5" d="m34.050213,54.650013l-1,-0.400002c-0.800003,-0.400002 -20.400002,-8.699997 -20.400002,-23.099998l0,-22.600001l0.799999,-0.799999c0.299999,-0.299999 8.200002,-7.600001 20.600003,-7.600001c12.399994,0 20.199997,7.300001 20.599998,7.600001l0.799995,0.799999l0,22.499999c0,14.299999 -19.5,22.700001 -20.399994,23.100002l-1,0.5l0,0zm-16.000004,-43.600001l0,20.100001c0,9.099998 12.299999,15.799995 16.000004,17.599998c3.699997,-1.800003 16,-8.400002 16,-17.599998l0,-20.100001c-2.100006,-1.599998 -7.900002,-5.5 -16,-5.5c-8.100002,0 -13.900002,3.900002 -16.000004,5.5l0,0z" class="st0"/>
     </g>
    </g>
   </g>
   <g id="svg_6">
    <path id="svg_7" d="m24.750208,28.35001c0.6,-0.099998 1,-0.199997 1.300001,-0.199997c0.100002,0 0.299999,0 0.600002,0l0.299999,0.299999c0.999996,1.799999 1.700001,2.899998 1.999996,3.299999c0.700005,0.799999 1.300003,1.400002 2,1.900002c0.400002,0.299999 1.100006,0.599998 2,0.899998c0.600006,0.200001 1.300003,0.299999 2,0.299999c1.200005,0 2.200005,-0.399998 3.100006,-1.199997c0.899994,-0.800003 1.299995,-1.600002 1.299995,-2.5c0,-0.600002 -0.199997,-1.100002 -0.5,-1.5c-0.299995,-0.400002 -1,-0.800003 -1.900002,-1.300003c-0.5,-0.199997 -1.699997,-0.5 -3.599998,-1c-1.900002,-0.5 -3.099998,-0.799999 -3.500002,-0.899998c-0.9,-0.299999 -1.699995,-0.799999 -2.4,-1.400002c-0.699999,-0.599998 -1.199997,-1.299999 -1.6,-2c-0.499998,-1.099998 -0.699995,-2 -0.699995,-2.799999c0,-1.400002 0.199997,-2.599998 0.599997,-3.5c0.400003,-0.900001 1,-1.7 1.800005,-2.400001c0.599998,-0.5 1.399994,-1 2.5,-1.5c1.099998,-0.399998 2.299995,-0.699997 3.599998,-0.699997c1.799995,0 3.400002,0.099998 4.699997,0.399998c1.400002,0.200001 2.5,0.600002 3.5,1.100002c0.099998,0.399998 0.300003,1.399998 0.5,2.999999c0.200005,1.599998 0.300003,2.5 0.300003,2.799999c0,0.099998 0,0.299999 -0.099998,0.399998c-0.5,0.200001 -0.900002,0.200001 -1.200005,0.200001c-0.199997,0 -0.5,0 -0.799995,-0.099998c-0.200005,-0.299999 -0.400002,-0.700001 -0.700005,-1.200001c-0.900002,-1.700001 -1.799995,-2.900001 -2.799995,-3.599998c-1,-0.700001 -2.100006,-1 -3.300003,-1c-1.300003,0 -2.400002,0.399998 -3.300003,1.099998c-0.6,0.5 -1,1.299998 -1,2.2c0,0.599998 0.300001,1.299999 1,1.899998c0.700005,0.700001 1.800003,1.200001 3.5,1.5c2.5,0.5 4.300003,1.100002 5.5,1.600002c1.700005,0.799999 2.900002,1.700001 3.600006,2.799999c0.699997,1.099998 1,2.299999 1,3.799999c0,2.200001 -0.800003,4 -2.5,5.5c-1.700005,1.5 -4.100006,2.200001 -7.300003,2.200001c-0.400002,0 -1.5,-0.099998 -3.300003,-0.299999c-0.799995,-0.100002 -1.699997,-0.299999 -2.799995,-0.600002c-0.300005,-0.099998 -1,-0.399998 -2.100002,-0.799999c-0.200003,-0.099998 -0.399998,-0.299999 -0.399998,-0.399998c-0.100002,-0.200001 -0.200001,-1 -0.400002,-2.400002c-0.400003,-2.099998 -0.500002,-3.5 -0.500002,-3.900002z" class="st0"/>
   </g>
  </g>
 </g>
</svg>